# xmcd
# 
# Track frame offsets:
#     150
#     13745
#     27959
#     51263
#     70067
#     90627
#     113647
#     130569
#     148559
#     166612
# 
# Disc length: 2509
# 
# Revision: 1
# Processed by: cddbd v1.5.2PL0 Copyright (c) Steve Scherf et al.
# Submitted via: fre:ac v1.0.17
# 
DISCID=7709cb0a
DTITLE=Trinity - Cada Día
DYEAR=2009
DGENRE=Gospel
TTITLE0=Pueblos todos
TTITLE1=Armadura
TTITLE2=Brood van het Leven
TTITLE3=Medley
TTITLE4=Girasol
TTITLE5=The minstrel
TTITLE6=Cada día
TTITLE7=Fly my song
TTITLE8=A stanger's tune
TTITLE9=Celtic blessing
EXTD=
EXTT0=
EXTT1=
EXTT2=
EXTT3=
EXTT4=
EXTT5=
EXTT6=
EXTT7=
EXTT8=
EXTT9=
PLAYORDER=
